HIERARCHY
ROOT Hips
{
  OFFSET 2.26061 22.2878 23.7974
  CHANNELS 6 Xposition Yposition Zposition Zrotation Xrotation Yrotation
  JOINT LeftUpLeg
  {
    OFFSET 8.64259 1.95398 -2.38835
    CHANNELS 3 Zrotation Xrotation Yrotation
    JOINT LeftLeg
    {
      OFFSET 43.7702 0 0
      CHANNELS 3 Zrotation Xrotation Yrotation
      JOINT LeftFoot
      {
        OFFSET 40.6238 0 0
        CHANNELS 3 Zrotation Xrotation Yrotation
        JOINT LeftToeBase
        {
          OFFSET 12.7242 0 0
          CHANNELS 3 Zrotation Xrotation Yrotation
          End Site
          {
            OFFSET 0 0 0
          }
        }
      }
    }
  }
  JOINT RightUpLeg
  {
    OFFSET -8.2249 1.95398 -2.59336
    CHANNELS 3 Zrotation Xrotation Yrotation
    JOINT RightLeg
    {
      OFFSET 43.5653 0 0
      CHANNELS 3 Zrotation Xrotation Yrotation
      JOINT RightFoot
      {
        OFFSET 40.6238 0 0
        CHANNELS 3 Zrotation Xrotation Yrotation
        JOINT RightToeBase
        {
          OFFSET 12.7242 0 0
          CHANNELS 3 Zrotation Xrotation Yrotation
          End Site
          {
            OFFSET 0 0 0
          }
        }
      }
    }
  }
  JOINT Spine
  {
    OFFSET 0.165834 0.87714 6.61349
    CHANNELS 3 Zrotation Xrotation Yrotation
    JOINT Spine1
    {
      OFFSET 7.38963 1.71661e-005 0
      CHANNELS 3 Zrotation Xrotation Yrotation
      JOINT Spine2
      {
        OFFSET 11.9445 1.14441e-005 0
        CHANNELS 3 Zrotation Xrotation Yrotation
        JOINT Spine3
        {
          OFFSET 14.7254 4.19617e-005 0
          CHANNELS 3 Zrotation Xrotation Yrotation
          JOINT Spine4
          {
            OFFSET 10.9679 0 0
            CHANNELS 3 Zrotation Xrotation Yrotation
            JOINT RightShoulder
            {
              OFFSET 2.46616 -1.6653 3.69651
              CHANNELS 3 Zrotation Xrotation Yrotation
              JOINT RightArm
              {
                OFFSET 13.0012 0 0
                CHANNELS 3 Zrotation Xrotation Yrotation
                JOINT RightForeArm
                {
                  OFFSET 28.7848 1.52588e-005 0
                  CHANNELS 3 Zrotation Xrotation Yrotation
                  JOINT RightHand
                  {
                    OFFSET 26.5688 1.52588e-005 0
                    CHANNELS 3 Zrotation Xrotation Yrotation
                    End Site
                    {
                      OFFSET 0 0 0
                    }
                  }
                }
              }
            }
            JOINT LeftShoulder
            {
              OFFSET 2.38034 -1.29275 -3.7523
              CHANNELS 3 Zrotation Xrotation Yrotation
              JOINT LeftArm
              {
                OFFSET 16.3182 6.10351e-005 0
                CHANNELS 3 Zrotation Xrotation Yrotation
                JOINT LeftForeArm
                {
                  OFFSET 27.0901 0 0
                  CHANNELS 3 Zrotation Xrotation Yrotation
                  JOINT LeftHand
                  {
                    OFFSET 24.5451 1.52588e-005 0
                    CHANNELS 3 Zrotation Xrotation Yrotation
                    End Site
                    {
                      OFFSET 0 0 0
                    }
                  }
                }
              }
            }
            JOINT Neck
            {
              OFFSET 5.0226 -0.0266342 0
              CHANNELS 3 Zrotation Xrotation Yrotation
              JOINT Head
              {
                OFFSET 6.69363 2.86102e-005 0
                CHANNELS 3 Zrotation Xrotation Yrotation
                End Site
                {
                  OFFSET 0 0 0
                }
              }
            }
          }
        }
      }
    }
  }
}
MOTION
Frames:	6
Frame Time:	0.0416667
25.4683 90.7269 -278.773 30.0557 -76.7975 24.0761 -172.458 3.16273 84.8359 -26.4236 24.4009 -1.99198 68.5041 13.4649 12.7459 45.0448 13.8569 8.47348 164.466 52.1702 91.0753 156.837 61.1313 161.771 66.4641 22.6494 9.5404 46.7496 -4.38181 -53.8478 -0.799649 7.73894 -89.032 11.4026 -1.13931 2.04277 -0.269486 -1.04833 2.09091 -22.7999 -1.7005 1.60607 -2.78729 -1.70051 1.60607 93.8785 -49.2495 -94.9777 27.0831 -21.4786 10.2687 -18.745 -13.3562 -76.859 -13.9258 1.10776 -13.975 -99.3636 -52.693 65.871 -15.7706 -10.6571 33.0576 20.7212 -14.006 -124.766 22.2867 -17.5151 -74.4508 12.4392 0.0501219 -1.21041 10.4467 0.274117 -0.310217 
25.4862 89.957 -280.277 30.5422 -76.5583 24.5113 -173.552 7.17385 83.744 -32.6043 21.0855 -1.30439 69.3412 15.2236 13.2822 46.8604 15.3989 7.97928 163.771 53.6132 90.8479 152.325 58.4796 162.308 66.3236 23.3468 9.70572 43.8716 -2.89861 -51.2595 -1.02182 7.84641 -88.9668 11.1921 -1.55335 2.20886 -0.479901 -1.45466 2.27503 -23.0132 -2.1453 1.64002 -3.00055 -2.1453 1.64003 93.7528 -51.1645 -94.8612 26.8956 -19.6615 14.6616 -19.5167 -13.6975 -77.2911 -18.203 -0.120035 -4.8019 -101.702 -53.5239 62.8906 -14.1793 -9.55976 26.1044 26.0157 -15.0552 -116.169 25.2544 -18.5291 -71.2704 14.6427 0.771703 -1.95907 9.59452 1.24605 0.259524 
25.6908 89.5732 -282.009 30.5845 -75.6446 25.6903 -174.114 12.2848 83.7988 -38.8124 19.8777 -0.739198 67.9107 13.588 12.096 49.6078 18.0207 8.82136 166.187 55.6562 89.6481 139.526 51.0238 167.292 55.6995 18.3026 10.6396 40.4106 -1.47733 -49.4675 -1.24327 7.79012 -89.0663 11.3108 -2.03898 2.06365 -0.360319 -1.94621 2.15137 -22.9017 -2.56487 1.35539 -2.8891 -2.56486 1.35539 93.0955 -52.6572 -95.6101 26.3925 -19.3706 18.907 -16.4244 -16.1337 -73.3393 -33.0245 -1.06873 -0.0970323 -101.726 -52.4092 62.4427 -14.5079 -5.50901 18.6481 34.0538 -14.6412 -104.549 30.1858 -18.8535 -63.5543 15.1433 1.56042 -2.80017 9.10676 2.27346 0.707137 
26.2079 89.4621 -280.727 17.1216 -76.3804 15.6222 -173.068 13.5434 86.5847 -41.6206 19.2602 -0.517899 68.2162 13.6619 12.5942 49.5499 18.0942 9.44957 170.591 56.591 90.4412 129.061 52.5195 169.676 38.102 4.96233 6.76507 33.1305 5.45719 -58.9409 -1.06048 7.64374 -89.3824 11.5976 -1.82033 1.41918 -0.0729272 -1.75609 1.49793 -22.6158 -2.16266 0.80637 -2.60316 -2.16265 0.806375 92.9916 -53.2939 -95.6591 26.7674 -20.6369 24.7893 -13.7756 -16.0073 -72.1335 -30.8732 -0.843568 -1.07161 -100.194 -50.6559 63.9669 -16.1282 -1.22052 14.0306 28.2162 -9.5774 -98.3911 31.8993 -14.6321 -49.6754 14.2338 2.88417 -3.35271 8.19486 3.72548 1.29846 
26.5173 89.5774 -276.12 -6.70432 -77.8308 -5.87281 -171.14 10.3081 89.0978 -42.0779 19.54 -1.19505 66.5405 10.1842 10.6435 49.2653 18.8772 14.2082 173.794 55.5799 92.5856 159.792 81.5813 137.454 23.7095 -3.08871 -0.418473 19.4295 16.9116 -95.1819 -0.695655 7.60839 -89.5915 11.6618 -1.19214 0.938436 -0.00892928 -1.1497 0.98999 -22.5474 -1.41907 0.536709 -2.53473 -1.41906 0.53673 93.5244 -52.9642 -94.9204 27.7165 -22.1507 30.4625 -13.7061 -15.846 -72.5576 -30.7368 -0.689232 -1.62949 -98.5053 -49.5753 66.0255 -17.8794 2.98948 11.009 16.3711 -6.16285 -99.367 32.8813 -3.85405 -16.1777 12.7011 4.3215 -3.97137 8.31589 5.35713 2.53202 
26.5808 90.2939 -268.718 -13.4102 -77.8226 -10.9528 -170.97 5.05003 91.7256 -38.1096 19.9189 -0.46402 59.5416 2.50719 4.67807 53.433 23.1573 14.858 171.503 52.8523 100.114 -64.5885 26.532 2.66157 48.3718 3.38296 3.47958 48.8489 9.56111 25.8928 -0.747875 7.44962 -89.8123 11.9785 -1.3984 0.526459 0.308172 -1.37389 0.587481 -22.2329 -1.49196 0.081751 -2.22031 -1.49196 0.0817414 93.6476 -52.7507 -94.7706 28.629 -22.9297 36.3808 -15.2172 -15.0549 -74.5884 -28.8911 -0.834988 -0.961219 -96.8645 -48.0015 67.9101 -19.2208 5.65215 10.2677 11.2674 -5.99494 -105.678 35.3556 1.78746 1.15098 11.5484 5.57146 -5.27007 7.73233 7.0112 4.54479 
